<?xml version="1.0" encoding="utf-8"?>
<svg xmlns="http://www.w3.org/2000/svg">
<symbol id="caret-down" viewBox="0 0 28 18"><title>Caret Down</title><path d="M25.602 1.133l2.265 2.265-13.734 13.735-14-14L2.398.867l11.735 11.735 11.47-11.47z" fill-rule="evenodd"/>
</symbol>
<symbol id="caret-left" viewBox="0 0 18 28">
    <title>Caret Right</title>
    <g stroke="none" stroke-width="1" fill-rule="evenodd">
        <g transform="translate(9.000000, 14.000000) rotate(90.000000) translate(-9.000000, -14.000000) translate(-5.000000, 5.000000)" fill="currentColor" fill-rule="nonzero">
            <polygon id="Path" points="25.602 1.133 27.867 3.398 14.133 17.133 0.133 3.133 2.398 0.867 14.133 12.602 25.603 1.132"/>
        </g>
    </g>

</symbol>
<symbol id="caret-right" viewBox="0 0 18 28">
    <title>Caret Right</title>
    <g stroke="none" stroke-width="1" fill-rule="evenodd">
        <g transform="translate(9.000000, 14.000000) rotate(-90.000000) translate(-9.000000, -14.000000) translate(-5.000000, 5.000000)" fill-rule="nonzero">
            <polygon id="Path" points="25.602 1.133 27.867 3.398 14.133 17.133 0.133 3.133 2.398 0.867 14.133 12.602 25.603 1.132"/>
        </g>
    </g>

</symbol>
<symbol id="caret-up" viewBox="0 0 28 18"><title>Caret Up</title><g transform="translate(14.000000, 9.000000) rotate(-180.000000) translate(-14.000000, -9.000000)"><polygon points="25.602 1.133 27.867 3.398 14.133 17.133 0.133 3.133 2.398 0.867 14.133 12.602 25.603 1.132"/></g>
</symbol>
<symbol id="minus" viewBox="0 0 16 16">
<path d="M0 6.5v3c0 0.276 0.224 0.5 0.5 0.5h15c0.276 0 0.5-0.224 0.5-0.5v-3c0-0.276-0.224-0.5-0.5-0.5h-15c-0.276 0-0.5 0.224-0.5 0.5z"/>

</symbol>
<symbol id="plus" viewBox="0 0 16 16">
<path d="M15.5 6h-5.5v-5.5c0-0.276-0.224-0.5-0.5-0.5h-3c-0.276 0-0.5 0.224-0.5 0.5v5.5h-5.5c-0.276 0-0.5 0.224-0.5 0.5v3c0 0.276 0.224 0.5 0.5 0.5h5.5v5.5c0 0.276 0.224 0.5 0.5 0.5h3c0.276 0 0.5-0.224 0.5-0.5v-5.5h5.5c0.276 0 0.5-0.224 0.5-0.5v-3c0-0.276-0.224-0.5-0.5-0.5z"/>

</symbol>
<symbol id="search" viewBox="0 0 15 16">
<path d="M15 13l-3.893-3.893c0.556-0.907 0.893-1.964 0.893-3.107 0-3.313-2.688-6-6-6s-6 2.687-6 6c0 3.313 2.687 6 6 6 1.143 0 2.2-0.337 3.107-0.891l3.893 3.891c0.273 0.273 0.727 0.271 1 0l1-1c0.273-0.273 0.273-0.727 0-1zM6 10c-2.209 0-4-1.791-4-4s1.791-4 4-4 4 1.791 4 4-1.791 4-4 4z"/>

</symbol>
<symbol id="spinner" viewBox="0 0 32 32">
<title>spinner8</title>
<path d="M16 32c-4.274 0-8.292-1.664-11.314-4.686s-4.686-7.040-4.686-11.314c0-3.026 0.849-5.973 2.456-8.522 1.563-2.478 3.771-4.48 6.386-5.791l1.344 2.682c-2.126 1.065-3.922 2.693-5.192 4.708-1.305 2.069-1.994 4.462-1.994 6.922 0 7.168 5.832 13 13 13s13-5.832 13-13c0-2.459-0.69-4.853-1.994-6.922-1.271-2.015-3.066-3.643-5.192-4.708l1.344-2.682c2.615 1.31 4.824 3.313 6.386 5.791 1.607 2.549 2.456 5.495 2.456 8.522 0 4.274-1.664 8.292-4.686 11.314s-7.040 4.686-11.314 4.686z"/>

</symbol>
<symbol id="triangle-down" viewBox="0 0 12 16">
<title>triangle-down</title>
<path d="M0 6l5.996 5.996 5.996-5.996h-11.992z"/>

</symbol>
<symbol id="triangle-left" viewBox="0 0 6 16">
<title>triangle-left</title>
<path d="M0 7.998l5.996 5.996v-11.992l-5.996 5.996z"/>

</symbol>
<symbol id="triangle-right" viewBox="0 0 6 16">
<title>triangle-right</title>
<path d="M0.001 2.004l5.996 5.996-5.996 5.996v-11.992z"/>

</symbol>
<symbol id="triangle-up" viewBox="0 0 12 16">
<title>triangle-up</title>
<path d="M5.996 4l-5.996 5.996h11.992l-5.996-5.996z"/>

</symbol>
<symbol id="x" viewBox="0 0 13 13">
    <title>x</title>
    <path d="M6.278 5.25L1.136.107.107 1.136 5.25 6.278.107 11.421l1.029 1.028 5.142-5.142 5.143 5.142 1.028-1.028-5.142-5.143 5.142-5.142L11.421.107 6.278 5.25z" fill-rule="evenodd" opacity=".75"/>

</symbol></svg>